# xmcd
#
# Track frame offsets: 
#        150
#        14769
#        29509
#
# Disc length: 585 seconds
#
# Revision: 0
# Processed by: cddbd v1.5.2PL0 Copyright (c) Steve Scherf et al.
# Submitted via: ExactAudioCopy v1.0b1
#
DISCID=21024703
DTITLE=Cassie - Me and U [CDM)
DYEAR=2006
DGENRE=R&B
TTITLE0=Me and U (Radio Edit)
TTITLE1=Me and U (Ryan Leslie Remix)
TTITLE2=Me and U (Instrumental)
EXTD=
EXTT0=
EXTT1=
EXTT2=
PLAYORDER=
